<svg width="124" height="21" viewBox="0 0 124 21" fill="none" xmlns="http://www.w3.org/2000/svg">
<path fill-rule="evenodd" clip-rule="evenodd" d="M116.603 4.56369C116.44 3.80929 116.093 3.12389 115.559 2.53279C114.908 1.80369 114.092 1.33219 113.192 0.982587C112.245 0.619187 111.26 0.423687 110.255 0.315587C110.136 0.302707 110.018 0.290563 109.899 0.278419C109.721 0.260203 109.543 0.241987 109.365 0.221287C109.32 0.217356 109.276 0.220949 109.231 0.224534C109.146 0.231439 109.06 0.238318 108.974 0.191387H100.2C100.092 0.774277 99.9824 1.35585 99.8729 1.9391L99.8721 1.94358L99.7671 2.50289C99.5191 3.86532 99.2676 5.22544 99.0159 6.58653L99.015 6.59189L99.0143 6.59521C98.9118 7.14984 98.8092 7.70462 98.7068 8.25979C98.394 9.96869 98.0789 11.6707 97.7592 13.3796C97.675 13.8385 97.5917 14.3001 97.5087 14.7599C97.4603 15.0283 97.4119 15.2961 97.3636 15.5623C97.3199 15.7877 97.3176 15.7923 97.1083 15.7923H87.4621L87.4433 15.7924C87.3797 15.7927 87.3114 15.7932 87.2298 15.7555C87.2506 15.6495 87.2701 15.543 87.2897 15.4365L87.2899 15.4354C87.3156 15.2951 87.3414 15.1546 87.3701 15.0149C87.4577 14.5305 87.5483 14.0462 87.6394 13.5597C87.7061 13.2029 87.7731 12.8449 87.8393 12.4849C87.8761 12.2779 87.8807 12.2779 88.0785 12.2779H91.6366H93.6905C93.7207 12.2779 93.7476 12.2782 93.7717 12.2785C93.8715 12.2796 93.9224 12.2802 93.9527 12.2555C93.9842 12.2299 93.9933 12.1769 94.012 12.0689C94.015 12.0518 94.0182 12.0333 94.0217 12.0134C94.1537 11.2674 94.2893 10.5232 94.4245 9.78081C94.5061 9.33295 94.5875 8.88574 94.668 8.43919C94.6956 8.28279 94.6956 8.27819 94.53 8.27819C94.2817 8.27512 94.0304 8.27614 93.7787 8.27716H93.7786C93.6526 8.27767 93.5265 8.27819 93.4007 8.27819H88.8559C88.7293 8.27819 88.6661 8.27819 88.6401 8.24706C88.6141 8.21598 88.6253 8.15385 88.6477 8.02966L88.6489 8.02289C88.7309 7.58503 88.8116 7.14626 88.8923 6.70719C88.9927 6.16143 89.0931 5.61521 89.1963 5.06969C89.205 5.02282 89.2111 4.98364 89.2162 4.95092C89.2285 4.87109 89.235 4.82966 89.2591 4.80851C89.2852 4.78569 89.3319 4.78645 89.429 4.78805C89.4585 4.78853 89.4926 4.78909 89.5321 4.78909C91.4227 4.78449 93.3179 4.78449 95.2085 4.78449C95.2221 4.78449 95.2362 4.78421 95.2505 4.78393C95.2946 4.78306 95.3411 4.78215 95.381 4.78909C95.5075 4.80059 95.542 4.73849 95.565 4.62809C95.6573 4.09137 95.7536 3.56066 95.8502 3.02848L95.8709 2.91459C96.0273 2.08199 96.1837 1.24479 96.3332 0.407587L96.3383 0.383308L96.3384 0.383231C96.3511 0.323181 96.3649 0.258434 96.3608 0.193687H83.5659C83.5624 0.432241 83.5128 0.664203 83.464 0.892569C83.4483 0.965845 83.4327 1.03875 83.4187 1.11139C83.2864 1.89088 83.1412 2.66609 82.9955 3.44377L82.9953 3.44477L82.9933 3.45594C82.9549 3.6609 82.9164 3.86605 82.8782 4.07149L82.8385 4.28479L82.838 4.28733C82.6373 5.36646 82.4352 6.45303 82.2411 7.53759C82.1095 8.25797 81.9766 8.9771 81.8438 9.69597L81.8422 9.70426C81.7203 10.3643 81.5984 11.0241 81.4775 11.6845C81.3948 12.1323 81.313 12.5793 81.2313 13.0256C81.1221 13.6223 81.013 14.2178 80.9025 14.8125C80.8703 14.9781 80.8657 14.9827 80.6886 14.9827H76.4152C76.222 14.9827 76.2128 14.9689 76.2519 14.7849C76.5141 13.352 76.7832 11.9145 77.0546 10.4839L77.0608 10.4507C77.314 9.08407 77.5672 7.71745 77.8182 6.35309C78.0061 5.33317 78.1963 4.31773 78.3864 3.30286C78.4685 2.86447 78.5505 2.42618 78.6324 1.98769C78.7068 1.59583 78.78 1.19802 78.8529 0.801965L78.8539 0.796533L78.9383 0.338587C78.9449 0.304248 78.9456 0.267584 78.9463 0.2319V0.231826C78.9466 0.217344 78.9468 0.203024 78.9475 0.189087H72.2683L72.0199 1.53637C71.786 2.80545 71.5523 4.07306 71.3161 5.34569C71.1054 6.48608 70.8969 7.62647 70.6883 8.76768L70.6879 8.77009C70.603 9.23463 70.518 9.69931 70.4329 10.1642C70.2892 10.937 70.1454 11.7109 70.0017 12.4849C69.8579 13.2588 69.7142 14.0328 69.5704 14.8056C69.5382 14.9804 69.5336 14.985 69.3657 14.985H65.1981C65.0049 14.985 65.0049 14.9758 65.044 14.7872C65.205 13.911 65.367 13.0393 65.5288 12.1687L65.5308 12.1578L65.531 12.1569C65.7129 11.178 65.8946 10.2004 66.0744 9.21889C66.2794 8.1143 66.4874 7.00818 66.6954 5.9023L66.6969 5.89431C66.8478 5.09161 66.9988 4.28904 67.1485 3.48729C67.3394 2.46609 67.528 1.44719 67.712 0.425987L67.7183 0.398233C67.7336 0.331908 67.7503 0.259615 67.7281 0.189087H61.0466C61.0371 0.399428 60.995 0.605419 60.9532 0.810052C60.9342 0.903017 60.9152 0.995702 60.8994 1.08839C60.7842 1.73095 60.6656 2.36894 60.5467 3.008L60.5465 3.00895C60.497 3.27541 60.4474 3.54205 60.398 3.80929C60.2699 4.50357 60.1418 5.19538 60.0137 5.88719L59.7563 7.27769C59.6745 7.72463 59.5921 8.17219 59.5096 8.62002C59.3672 9.39363 59.2246 10.1681 59.0847 10.9416C58.8455 12.2296 58.6086 13.5084 58.3717 14.7918C58.3549 14.8833 58.3371 14.9743 58.3194 15.0651L58.3193 15.0654L58.3193 15.0655C58.2813 15.2601 58.2435 15.4538 58.2153 15.6497C58.1969 15.767 58.144 15.7923 58.0428 15.7923C58.0137 15.7892 57.9845 15.7902 57.9554 15.7913C57.9408 15.7918 57.9263 15.7923 57.9117 15.7923C54.7101 15.7923 51.5108 15.7923 48.3092 15.7877C48.2663 15.7877 48.2292 15.7894 48.1976 15.7908C48.0278 15.7986 48.0138 15.7993 48.07 15.491C48.2232 14.6682 48.3702 13.8469 48.5174 13.0246L48.5176 13.0234L48.6128 12.4918C48.6319 12.3885 48.6417 12.3356 48.6734 12.3086C48.7067 12.2802 48.7642 12.2802 48.8819 12.2802H54.4686C54.4887 12.2802 54.5086 12.2797 54.5282 12.2792C54.5671 12.2781 54.6052 12.2771 54.6434 12.2802C54.74 12.2894 54.7883 12.248 54.8044 12.1491C54.9683 11.2278 55.1345 10.3078 55.3006 9.38895L55.3009 9.38759L55.4875 8.35409C55.4894 8.35039 55.4882 8.34521 55.4865 8.33735L55.4852 8.33109C55.4233 8.29393 55.3573 8.29761 55.2914 8.30128C55.2716 8.30239 55.2518 8.30349 55.2322 8.30349H49.6662C49.3925 8.30349 49.3879 8.30349 49.4362 8.04359C49.5306 7.52468 49.6255 7.00692 49.7204 6.48917L49.7204 6.48899C49.8153 5.97181 49.9101 5.45462 50.0043 4.93629C50.025 4.82359 50.0664 4.77529 50.1906 4.77989C50.3589 4.78448 50.5273 4.78296 50.6969 4.78143L50.697 4.78143C50.7824 4.78066 50.868 4.77989 50.9542 4.77989H56.0832C56.0958 4.77989 56.1084 4.7796 56.1211 4.77932L56.1211 4.77931C56.1592 4.77845 56.1976 4.77758 56.2373 4.78449C56.3546 4.79599 56.4006 4.73619 56.4213 4.62349C56.476 4.28811 56.5383 3.95581 56.6008 3.62281L56.6421 3.40219C56.733 2.89826 56.8245 2.39549 56.9159 1.89272L56.916 1.89247C57.0073 1.39023 57.0987 0.887981 57.1895 0.384587C57.1967 0.344342 57.1994 0.304097 57.2021 0.263852C57.2037 0.239697 57.2053 0.215542 57.2079 0.191387H17.4271C17.3975 0.470674 17.3445 0.744094 17.2915 1.01751C17.2702 1.12688 17.249 1.23625 17.2293 1.34599L16.9739 2.74663C16.8037 3.68019 16.6336 4.61375 16.4634 5.54119C16.238 6.77169 16.0149 7.99989 15.7918 9.22809C15.701 9.72604 15.609 10.2246 15.517 10.7231C15.425 11.2216 15.333 11.7201 15.2421 12.2181C15.2368 12.2488 15.2306 12.2785 15.2242 12.3085L15.2242 12.3086C15.2168 12.3439 15.2092 12.3797 15.203 12.4182C15.1465 12.4182 15.1363 12.3843 15.1268 12.353C15.1248 12.3461 15.1227 12.3393 15.1202 12.3331C14.6705 11.0995 14.2214 9.86449 13.7723 8.62925L13.772 8.62843L13.7713 8.62639C13.4169 7.65161 13.0624 6.67667 12.7075 5.70219C12.2305 4.39181 11.7511 3.08519 11.271 1.77678C11.1005 1.31226 10.93 0.847509 10.7594 0.382287C10.7467 0.346876 10.7365 0.307975 10.7263 0.268809L10.7263 0.268787C10.72 0.244363 10.7136 0.219836 10.7065 0.195987H3.76511C3.73214 0.369266 3.69892 0.542544 3.66569 0.715823C3.59925 1.06234 3.53281 1.40887 3.46841 1.75539C3.33157 2.49637 3.19517 3.23825 3.05883 3.97984L3.05881 3.97992L3.05875 3.98024C2.88576 4.92119 2.71284 5.86168 2.53921 6.79929C2.37404 7.69438 2.20822 8.58691 2.04244 9.47925L2.04236 9.47969L2.04225 9.48031C1.89414 10.2775 1.74607 11.0745 1.59851 11.8731C1.48992 12.4649 1.38163 13.0573 1.27332 13.6499L1.27329 13.65C1.08567 14.6764 0.897967 15.7033 0.708411 16.7284C0.503711 17.8416 0.299011 18.9525 0.0943114 20.0611L0.087724 20.0798C0.0654993 20.1433 0.0461297 20.1986 1.13577e-05 20.2405C0.000362554 20.2503 1.66178e-05 20.2611 -0.000338633 20.2721C-0.00230994 20.3333 -0.00456807 20.4035 0.110411 20.3762C0.128731 20.367 0.148065 20.37 0.167739 20.3731C0.177705 20.3746 0.187758 20.3762 0.197811 20.3762H6.68151C6.64845 20.277 6.66801 20.1844 6.68735 20.0928L6.68736 20.0928C6.69089 20.0761 6.69442 20.0594 6.69761 20.0427C6.81749 19.3692 6.93604 18.6936 7.05468 18.0175L7.0547 18.0174C7.15686 17.4353 7.25909 16.8527 7.36231 16.2707C7.48304 15.5923 7.60493 14.9144 7.72681 14.2366L7.72686 14.2363C7.84876 13.5584 7.97066 12.8805 8.09141 12.202C8.31681 10.9232 8.53991 9.65589 8.76301 8.38169L8.77059 8.34131C8.80254 8.17106 8.8342 8.00235 8.86191 7.82969C8.92272 7.82589 8.93015 7.86133 8.93738 7.89582L8.93738 7.89584C8.9389 7.90309 8.94041 7.9103 8.94241 7.91709C9.24141 8.77269 9.53811 9.63289 9.83251 10.4931C10.5581 12.5941 11.2837 14.6974 12.0093 16.8007L12.012 16.8086L12.0129 16.8112C12.1914 17.3324 12.3708 17.852 12.5504 18.3719L12.5504 18.3719C12.7503 18.9508 12.9504 19.53 13.1491 20.1117C13.1564 20.1362 13.1652 20.1598 13.174 20.1832C13.1956 20.2409 13.2168 20.2976 13.2135 20.3647H36.9679C36.9798 20.1295 37.0264 19.9031 37.0723 19.6808L37.0723 19.6808C37.0887 19.6009 37.1051 19.5215 37.1197 19.4424C37.2714 18.6071 37.426 17.768 37.5804 16.93L37.5813 16.9249L37.5819 16.9219C37.668 16.4543 37.7541 15.987 37.8396 15.5209C38.0788 14.2283 38.318 12.938 38.5572 11.6477C38.7011 10.8702 38.844 10.0917 38.9865 9.31498L38.9878 9.3077L39.1874 8.22069C39.2912 7.65615 39.3963 7.09347 39.5014 6.53104L39.5019 6.52833C39.5991 6.00783 39.6962 5.48754 39.7923 4.96619L39.7985 4.93113C39.8236 4.78586 39.8247 4.77989 40.0108 4.77989H43.286C43.301 4.77989 43.3153 4.78104 43.3297 4.78219C43.3441 4.78334 43.3585 4.78449 43.3734 4.78449C43.4608 4.77529 43.4907 4.82359 43.4792 4.90179C43.465 4.98281 43.4514 5.06383 43.4379 5.14471C43.4165 5.27278 43.3951 5.40052 43.3711 5.52739C43.056 7.23629 42.7386 8.94979 42.4212 10.661C42.1084 12.3423 41.7956 14.0305 41.4851 15.7118C41.2712 16.8618 41.0619 18.0072 40.8526 19.1572C40.7949 19.4744 40.7387 19.7888 40.6827 20.1014L40.6364 20.3601H102.989C102.999 20.146 103.04 19.9385 103.081 19.7307L103.082 19.7302C103.1 19.6368 103.119 19.5434 103.134 19.4493C103.314 18.4442 103.498 17.4368 103.682 16.4317C103.832 15.6118 103.984 14.7927 104.136 13.9735L104.137 13.9686L104.138 13.9646C104.242 13.4033 104.346 12.8419 104.45 12.2802C104.499 12.0134 104.548 11.7449 104.596 11.4764L104.596 11.4763C104.644 11.2078 104.693 10.9393 104.742 10.6725C104.801 10.678 104.807 10.7186 104.813 10.7582L104.813 10.7583C104.814 10.7683 104.816 10.7782 104.818 10.7875C105.269 12.2917 105.722 13.8051 106.168 15.3185C106.66 16.9699 107.15 18.6144 107.635 20.2612C107.645 20.2911 107.649 20.3187 107.654 20.3509H114.296C114.199 20.0954 114.105 19.8387 114.01 19.5821L114.01 19.5814C113.872 19.2101 113.735 18.8389 113.592 18.4718C113.077 17.091 112.558 15.7113 112.039 14.3343L112.038 14.3316C111.816 13.7415 111.594 13.152 111.373 12.5631C111.279 12.3248 111.283 12.3239 111.529 12.2716L111.532 12.271C112.15 12.1422 112.764 11.9973 113.344 11.7443C114.945 11.0336 115.987 9.84219 116.479 8.16089C116.647 7.56519 116.723 6.95799 116.746 6.33699C116.773 5.73899 116.737 5.15019 116.603 4.56369ZM33.1545 4.96389C33.1216 5.19135 33.0801 5.41773 33.0388 5.64305L33.0387 5.64327C33.0195 5.74824 33.0003 5.85298 32.982 5.95749C32.798 6.96489 32.6094 7.98379 32.4208 8.99579C32.2709 9.81803 32.1174 10.6403 31.9637 11.4634C31.9029 11.7892 31.8421 12.1151 31.7814 12.4412C31.6862 12.9654 31.5904 13.4885 31.4946 14.0116L31.494 14.0151C31.3979 14.5396 31.3019 15.0642 31.2064 15.5899L31.206 15.5922C31.1719 15.7831 31.1711 15.7877 30.9695 15.7877H21.275C21.2701 15.7877 21.2651 15.7878 21.2601 15.7879C21.2563 15.7879 21.2524 15.788 21.2486 15.7881C21.199 15.7893 21.1465 15.7906 21.0841 15.7555C21.1669 15.299 21.2496 14.8476 21.332 14.3985C21.3961 14.0487 21.46 13.7004 21.5234 13.352C21.5636 13.1427 21.6025 12.9335 21.6412 12.726L21.6413 12.7254L21.6844 12.4941L21.6856 12.4875C21.7044 12.3836 21.7138 12.3312 21.7452 12.3048C21.7771 12.2779 21.8318 12.2779 21.942 12.2779H27.7702C28.0623 12.2779 28.0669 12.2779 28.1221 11.9789C28.3199 10.8795 28.5177 9.78469 28.7178 8.67839C28.7232 8.64773 28.7288 8.61758 28.7344 8.58744L28.7344 8.58739C28.7457 8.52709 28.7569 8.46678 28.7661 8.40239C28.7868 8.2622 28.7845 8.26209 28.6423 8.2552L28.6419 8.25519H28.4671H22.7907C22.65 8.25519 22.5804 8.25519 22.552 8.22099C22.5242 8.18755 22.5357 8.12144 22.5584 7.99069C22.6258 7.60352 22.6928 7.216 22.7599 6.82813L22.76 6.82741L22.7602 6.82653C22.8647 6.22184 22.9695 5.61629 23.0759 5.00989L23.0763 5.00756C23.115 4.78216 23.1158 4.77759 23.345 4.77759H29.785H32.8417H32.9958C33.1752 4.78219 33.1867 4.79369 33.1545 4.96389ZM108.712 9.25339C109.328 8.96129 109.788 8.51739 110.041 7.87799C110.214 7.45709 110.255 7.02009 110.241 6.57619C110.237 5.70449 109.751 4.97309 108.944 4.63269C108.528 4.46249 108.098 4.37969 107.654 4.33369C107.245 4.29075 106.832 4.29144 106.419 4.29212C106.368 4.2922 106.316 4.29229 106.265 4.29229C106.093 4.29229 106.007 4.29229 105.957 4.33453C105.907 4.37659 105.893 4.46054 105.864 4.62809C105.757 5.20234 105.651 5.77549 105.546 6.34836C105.435 6.95025 105.324 7.55182 105.211 8.15399C105.171 8.37036 105.131 8.58788 105.091 8.8054C105.051 9.02488 105.01 9.24436 104.97 9.46269C104.949 9.56701 104.939 9.6199 104.961 9.64699C104.983 9.67485 105.039 9.67542 105.154 9.67659H106.053C106.114 9.67624 106.175 9.67615 106.235 9.67607C106.577 9.6756 106.922 9.67512 107.265 9.62829C107.769 9.56849 108.259 9.46499 108.712 9.25339Z" fill="white"/>
<path fill-rule="evenodd" clip-rule="evenodd" d="M121.487 17.5128C121.46 17.5197 121.432 17.527 121.401 17.5357C121.768 17.8019 122.01 18.1545 122.253 18.5094C122.341 18.639 122.43 18.7689 122.526 18.895C122.392 18.9739 122.265 18.9646 122.142 18.9557C122.104 18.9529 122.066 18.9502 122.029 18.9502C121.975 18.9502 121.947 18.9072 121.92 18.8652C121.91 18.8497 121.9 18.8344 121.888 18.8214C121.814 18.72 121.741 18.6186 121.668 18.5175C121.538 18.3366 121.409 18.1567 121.274 17.9796C121.04 17.6691 120.748 17.5564 120.375 17.6369C120.342 17.6454 120.305 17.6432 120.268 17.641C120.207 17.6373 120.147 17.6337 120.111 17.6829C120.071 17.7339 120.083 17.8061 120.095 17.8759C120.1 17.9037 120.105 17.9311 120.106 17.9566C120.113 18.1363 120.122 18.3153 120.131 18.4948C120.138 18.6186 120.144 18.7426 120.15 18.8674L120.15 18.8717C120.154 19.0288 120.155 19.0515 119.975 19.056C119.966 19.0563 119.958 19.0566 119.95 19.0569C119.719 19.0655 119.715 19.0657 119.706 18.8145C119.696 18.628 119.689 18.441 119.681 18.2533C119.674 18.0706 119.667 17.8874 119.657 17.7036C119.638 17.368 119.621 17.0346 119.604 16.6988C119.596 16.5582 119.589 16.4171 119.582 16.2753C119.581 16.2647 119.58 16.2547 119.579 16.2448C119.577 16.2269 119.575 16.2095 119.575 16.1902C119.567 16.0338 119.563 15.9561 119.599 15.9165C119.636 15.8774 119.712 15.8751 119.862 15.8705C120.034 15.8655 120.206 15.8555 120.378 15.8454C120.683 15.8275 120.99 15.8096 121.297 15.8199C121.53 15.8199 121.741 15.8751 121.911 16.0453C122.36 16.4938 122.204 17.2505 121.61 17.4782C121.57 17.4911 121.531 17.5013 121.487 17.5128ZM120.751 17.2322C120.87 17.2292 120.989 17.2263 121.106 17.216C121.224 17.1999 121.336 17.1723 121.44 17.1194C121.629 17.0205 121.714 16.8641 121.709 16.6571C121.698 16.4524 121.553 16.2776 121.341 16.2247C121.215 16.1833 121.088 16.1649 120.955 16.1833C120.791 16.2148 120.627 16.2183 120.464 16.2217C120.388 16.2233 120.313 16.225 120.237 16.2293C120.021 16.2385 119.998 16.2477 120.03 16.4478C120.05 16.5721 120.052 16.6964 120.055 16.8208C120.056 16.9126 120.058 17.0045 120.067 17.0964C120.068 17.1054 120.069 17.1138 120.07 17.1218C120.087 17.2533 120.088 17.2574 120.239 17.2574H120.304C120.453 17.2395 120.602 17.2358 120.751 17.2322Z" fill="white"/>
<path fill-rule="evenodd" clip-rule="evenodd" d="M120.285 14.4767C121.833 14.203 123.271 15.1391 123.687 16.6042C123.701 16.657 123.707 16.7108 123.713 16.7644C123.721 16.8484 123.73 16.9317 123.772 17.009V17.7956C123.734 17.8557 123.731 17.9243 123.727 17.9947C123.724 18.0401 123.722 18.0863 123.71 18.1314C123.462 19.0537 122.907 19.7184 122.045 20.1278C121.911 20.1912 121.77 20.2317 121.627 20.2724C121.527 20.3011 121.426 20.3299 121.327 20.367H120.281C120.2 20.317 120.111 20.2952 120.022 20.2734C119.971 20.2611 119.92 20.2487 119.871 20.2313C118.735 19.8012 118.045 18.9985 117.873 17.7887C117.65 16.2201 118.735 14.7481 120.285 14.4767ZM118.369 17.4115C118.372 18.8766 119.611 19.8541 120.812 19.8587C122.176 19.8679 123.31 18.6673 123.257 17.4115C123.294 16.1672 122.229 14.9689 120.824 14.9689C119.457 14.9689 118.365 16.0545 118.369 17.4115Z" fill="white"/>
</svg>
