<svg width="108" height="39" viewBox="0 0 108 39" fill="none" xmlns="http://www.w3.org/2000/svg">
<path fill-rule="evenodd" clip-rule="evenodd" d="M26.6808 16.3921C27.0779 16.4611 27.4752 16.5301 27.8733 16.5845C28.32 16.6489 28.38 16.8956 28.3066 17.2822C28.1823 17.9337 28.0559 18.5848 27.9294 19.2357C27.5564 21.1559 27.1836 23.0748 26.8666 25C26.668 26.2038 26.5922 27.428 26.5167 28.6488C26.506 28.8208 26.4954 28.9927 26.4844 29.1645C26.4555 29.5911 26.3555 29.7511 25.9178 29.7356C25.1111 29.7089 24.2978 29.7089 23.4911 29.7356C23.0755 29.7511 22.9378 29.5956 22.9778 29.1911C23.0176 28.7619 23.0418 28.3306 23.0665 27.889C23.079 27.6653 23.0917 27.439 23.1066 27.2089C22.9001 27.4246 22.7072 27.64 22.5193 27.8499C22.1109 28.3061 21.7261 28.7359 21.2755 29.0845C19.9111 30.1422 18.3489 30.38 16.7666 29.6556C15.2022 28.9356 14.56 27.5422 14.4955 25.9022C14.3555 22.4556 15.5555 19.6 18.4666 17.6134C20.2933 16.3667 22.3866 15.9845 24.5578 16.1067C25.2677 16.1465 25.9741 16.2693 26.6808 16.3921ZM21.4244 26.4134C21.7555 26.1356 22.0644 25.8022 22.2978 25.44C23.2217 24.0234 23.4733 22.4261 23.7282 20.8078C23.8148 20.2581 23.9017 19.706 24.0155 19.1578C22.7533 18.8067 21.6978 19.0489 20.8111 19.7956C19.1422 21.2 18.3889 23.0334 18.5333 25.2067C18.5755 25.88 18.8289 26.5178 19.5311 26.8C20.2378 27.0822 20.88 26.8822 21.4244 26.4134Z" fill="white"/>
<path d="M67.5644 2.89335C65.7711 -0.186649 61.6578 0.60224 61.6578 0.60224C61.3311 0.675573 60.9978 0.755573 60.6667 0.817795C58.6667 1.19113 56.7822 1.8778 54.9778 2.79335C51.0556 4.78002 47.5444 7.34668 44.3889 10.3822C42.2911 12.4 40.2533 14.4889 38.2889 16.6422C34.84 20.4267 31.8867 24.5822 29.5267 29.14C28.3111 31.4845 27.2267 33.8978 26.7267 36.5222C26.6333 37.0045 26.7889 37.56 26.9444 38.0489C27.0111 38.24 27.3667 38.3889 27.6156 38.4667C27.6822 38.4845 27.8844 38.1645 27.9733 37.9756C28.5489 36.7267 29.0022 35.4067 29.7067 34.24C31.1133 31.9 32.5844 29.5911 34.16 27.3645C36.6867 23.7845 39.5822 20.5045 42.68 17.4022C45.6067 14.4689 48.6022 11.6111 52.2956 9.63335C53.9911 8.72446 55.7111 7.84224 57.4911 7.11335C60.5511 5.85113 63.74 4.99557 67.0267 4.50668C67.3733 4.4578 67.8467 4.18002 67.96 3.89113C68.0555 3.64224 67.5644 2.89335 67.5644 2.89335Z" fill="white"/>
<path fill-rule="evenodd" clip-rule="evenodd" d="M11.1222 11.5512C13.2511 12.0756 14.7289 13.5667 14.98 15.3245C15.4889 18.8312 13.4489 21.6356 10.4044 22.6378C8.80444 23.1712 7.17333 23.2845 5.51556 23.1356C5.12444 23.0978 5.00667 23.2023 4.94 23.5712C4.59333 25.4778 4.22 27.3889 3.84222 29.2912C3.81556 29.4445 3.67778 29.6912 3.58444 29.6956C2.64225 29.7189 1.6986 29.7176 0.71253 29.7163C0.477612 29.7159 0.240287 29.7156 0 29.7156C0.0599172 29.3846 0.117058 29.0629 0.173038 28.7477C0.283154 28.1277 0.388781 27.533 0.502222 26.9423C0.861721 25.0555 1.22284 23.1691 1.58398 21.2827C2.16712 18.2365 2.75028 15.1902 3.32667 12.1423C3.38444 11.8312 3.47556 11.6156 3.79778 11.5667C6.24 11.1978 8.68444 10.9489 11.1222 11.5512ZM7.81778 20.02C9.16667 19.8756 10.2622 19.2645 10.8644 17.9778C11.5511 16.52 11.0578 14.9734 9.75556 14.5156C8.83111 14.1845 7.87778 14.2556 6.92889 14.3823C6.81333 14.4 6.65556 14.5756 6.62889 14.7023C6.34666 16.1339 6.07702 17.5688 5.78292 19.1337C5.72735 19.4294 5.6709 19.7297 5.61333 20.0356C5.86453 20.0356 6.10714 20.0416 6.34338 20.0473C6.85739 20.0599 7.34124 20.0718 7.81778 20.02Z" fill="white"/>
<path d="M34.2644 11.4467C33.9088 8.42449 32.6066 5.84893 30.5355 3.65338C30.2955 3.3956 29.9466 3.20671 29.6133 3.08449C29.2688 2.96005 29.0422 3.1556 29.0755 3.54893C29.1044 3.89338 29.1355 4.24227 29.1955 4.58449C29.6155 6.96005 30.0222 9.34005 30.4733 11.7134C30.8266 13.5667 31.2133 15.4156 31.6333 17.2556C31.7711 17.8512 32.0111 18.4378 32.2955 18.9823C32.5111 19.3978 32.8222 19.3645 33.1111 18.9845C33.2333 18.8267 33.3666 18.6645 33.4311 18.4823C34.0533 16.7778 34.3755 15.0178 34.4133 13.2C34.3644 12.6156 34.3333 12.0289 34.2644 11.4467Z" fill="white"/>
<path d="M102.584 19.0645C102.662 18.1978 102.727 17.3289 102.8 16.4022C101.729 16.4022 100.731 16.3889 99.7489 16.42C99.6334 16.4245 99.4378 16.6667 99.4289 16.8067C99.1511 20.2489 98.4511 23.6245 97.7756 27.0045C97.6045 27.88 97.4511 28.7578 97.28 29.7222C98.5623 29.7222 99.7645 29.7311 100.971 29.7045C101.062 29.7022 101.196 29.4489 101.227 29.3C101.604 27.4556 101.896 25.5845 102.342 23.7533C102.984 21.1222 104.069 20.2111 106.638 19.8733C106.751 19.8578 106.92 19.7378 106.942 19.6445C107.184 18.5022 107.402 17.36 107.644 16.1245C105.167 15.8667 103.784 17.2933 102.584 19.0645Z" fill="white"/>
<path fill-rule="evenodd" clip-rule="evenodd" d="M97.0712 19.8689C97.1757 21.5845 96.389 22.88 94.7623 23.64C93.129 24.4 91.3712 24.5045 89.6046 24.5445C89.3632 24.5503 89.1218 24.5484 88.874 24.5465C88.7476 24.5455 88.6196 24.5445 88.489 24.5445C88.3601 25.8267 89.2801 26.8089 90.6734 26.9778C91.9757 27.1333 93.2334 26.94 94.4579 26.4911C94.6623 26.4222 94.869 26.3445 95.1401 26.24C95.1579 26.4131 95.1761 26.5842 95.1941 26.7539C95.2638 27.4098 95.331 28.0426 95.3646 28.6711C95.369 28.8267 95.1957 29.0844 95.0446 29.1445C92.8334 30.0533 90.5468 30.3645 88.2157 29.7289C86.1201 29.1556 85.0179 27.6333 84.7668 25.5422C84.4423 22.8733 85.1268 20.4556 86.989 18.48C88.9846 16.3578 91.4668 15.6 94.3023 16.3822C96.0379 16.8622 96.9623 18.1111 97.0712 19.8689ZM93.4379 19.9067C93.3646 19.3645 92.9912 19.1022 92.4912 18.9645C90.9401 18.54 89.0268 19.9511 88.8534 21.7756C89.1067 21.7593 89.3558 21.7471 89.6017 21.7351C90.1606 21.7079 90.703 21.6814 91.2401 21.6089C91.7623 21.54 92.2823 21.3845 92.7601 21.1711C93.2779 20.9511 93.5157 20.4889 93.4379 19.9067Z" fill="white"/>
<path d="M70.129 18.88C69.969 17.4356 68.9956 16.3978 67.5845 16.1578C65.8756 15.8778 64.3956 16.3756 63.1089 17.4978C62.7578 17.8023 62.4267 18.1312 62.0445 18.4889C62.0978 17.7889 62.1534 17.1134 62.2067 16.4112C61.0645 16.4112 60.0023 16.4112 58.8978 16.4112C58.0801 20.84 57.2756 25.2312 56.4512 29.7134C57.7245 29.7134 58.8734 29.7289 60.0289 29.6934C60.1578 29.6889 60.3578 29.4245 60.3889 29.2556C60.6756 27.8223 60.9356 26.3756 61.1867 24.94C61.4223 23.6134 61.6556 22.2956 62.3378 21.1112C62.7978 20.3023 63.3578 19.5778 64.3001 19.2778C65.2667 18.9689 65.9956 19.4356 66.1089 20.4334C66.1445 20.7223 66.1645 21.0245 66.1178 21.3112C65.849 22.9934 65.5578 24.6734 65.2623 26.3489C65.0689 27.4445 64.8556 28.5378 64.6512 29.62C64.7556 29.6689 64.8067 29.7089 64.8556 29.7089C65.9756 29.7178 67.0978 29.74 68.2178 29.7089C68.3467 29.7045 68.5401 29.4489 68.5778 29.2867C68.9601 27.4 69.3156 25.5156 69.6734 23.6223C69.9756 22.06 70.3067 20.4956 70.129 18.88Z" fill="white"/>
<path fill-rule="evenodd" clip-rule="evenodd" d="M81.8866 23.58C80.6666 24.1845 79.3489 24.4134 78.0066 24.4911C77.4309 24.5263 76.8511 24.5173 76.2655 24.5083C75.999 24.5042 75.7312 24.5 75.4622 24.5C75.3711 25.8534 76.2866 26.8134 77.6711 26.9822C79.0089 27.1489 80.3066 26.9356 81.5555 26.4556C81.6165 26.4343 81.677 26.4117 81.7375 26.3892C81.8159 26.36 81.8943 26.3308 81.9733 26.3045C81.9916 26.2974 82.0144 26.2984 82.0529 26.3001C82.0751 26.301 82.1027 26.3022 82.1377 26.3022C82.1573 26.5067 82.1781 26.7116 82.1989 26.9168C82.2584 27.5035 82.3181 28.0929 82.3511 28.6822C82.3533 28.8356 82.1755 29.0934 82.0289 29.1511C79.8511 30.0422 77.5933 30.3534 75.2977 29.76C73.1577 29.2089 71.9844 27.6734 71.7466 25.5311C71.4133 22.5 72.3 19.84 74.66 17.8311C76.6044 16.1756 78.8866 15.6578 81.36 16.3956C83.0133 16.8867 83.9377 18.12 84.0622 19.8289C84.1777 21.5134 83.4444 22.7956 81.8866 23.58ZM80.4289 19.9267C80.3422 19.3689 79.9689 19.0867 79.44 18.9578C77.8844 18.58 76.0577 19.9445 75.8489 21.6711C76.86 21.8822 78.9133 21.6356 79.7 21.22C80.2422 20.9378 80.5155 20.4711 80.4289 19.9267Z" fill="white"/>
<path fill-rule="evenodd" clip-rule="evenodd" d="M53.7512 17.1956C55.0557 18.1644 55.689 19.5133 55.7935 21.1111C55.8912 22.7756 55.609 24.3778 54.8223 25.8511C53.3468 28.6133 50.9957 29.96 48.6179 30.0289C45.1646 30.0333 43.1979 28.7578 42.4735 26.4556C41.2868 22.6756 43.5668 16.7733 49.149 16.1533C50.8201 15.9689 52.3801 16.1778 53.7512 17.1956ZM48.5646 27.0822C49.2801 27.0178 49.8468 26.6422 50.2779 26.0933C51.4379 24.6244 51.889 22.92 51.7335 21.0933C51.609 19.5956 50.4757 18.7889 49.0912 19.1089C48.4179 19.26 47.9135 19.6844 47.509 20.2289C46.6046 21.4489 46.2401 22.8511 46.1979 24.3489C46.1979 24.4101 46.1966 24.4724 46.1953 24.5353C46.1924 24.6732 46.1894 24.8137 46.2001 24.9511C46.3046 26.3111 47.2823 27.2022 48.5646 27.0822Z" fill="white"/>
</svg>
